<svg width="32" height="32" viewBox="0 0 32 32" fill="none" xmlns="http://www.w3.org/2000/svg">
<path d="M17.4167 11.25H14.25V8.08334H17.4167M17.4167 23.9167H14.25V14.4167H17.4167M15.8333 0.166672C13.7541 0.166672 11.6952 0.576213 9.77418 1.37191C7.85319 2.16761 6.10774 3.33389 4.63748 4.80415C1.66815 7.77347 0 11.8007 0 16C0 20.1993 1.66815 24.2265 4.63748 27.1959C6.10774 28.6661 7.85319 29.8324 9.77418 30.6281C11.6952 31.4238 13.7541 31.8333 15.8333 31.8333C20.0326 31.8333 24.0599 30.1652 27.0292 27.1959C29.9985 24.2265 31.6667 20.1993 31.6667 16C31.6667 13.9207 31.2571 11.8618 30.4614 9.94085C29.6657 8.01986 28.4995 6.27441 27.0292 4.80415C25.5589 3.33389 23.8135 2.16761 21.8925 1.37191C19.9715 0.576213 17.9126 0.166672 15.8333 0.166672Z" fill="#F24E1E"/>
</svg>
