<svg width="214" height="36" viewBox="0 0 214 36" fill="none" xmlns="http://www.w3.org/2000/svg">
<path d="M18 27H0V17.25L6.45 21L10.22 18.8L18 23.29V27ZM0 14.94V12.75L6.45 16.5L10.22 14.3L18 18.79V21L10.22 16.5L6.45 18.67L0 14.94Z" fill="#F24E1E"/>
<path d="M39.84 17.6C39.84 15.952 40.208 14.48 40.944 13.184C41.696 11.872 42.712 10.856 43.992 10.136C45.288 9.4 46.736 9.032 48.336 9.032C50.208 9.032 51.848 9.512 53.256 10.472C54.664 11.432 55.648 12.76 56.208 14.456H52.344C51.96 13.656 51.416 13.056 50.712 12.656C50.024 12.256 49.224 12.056 48.312 12.056C47.336 12.056 46.464 12.288 45.696 12.752C44.944 13.2 44.352 13.84 43.92 14.672C43.504 15.504 43.296 16.48 43.296 17.6C43.296 18.704 43.504 19.68 43.92 20.528C44.352 21.36 44.944 22.008 45.696 22.472C46.464 22.92 47.336 23.144 48.312 23.144C49.224 23.144 50.024 22.944 50.712 22.544C51.416 22.128 51.96 21.52 52.344 20.72H56.208C55.648 22.432 54.664 23.768 53.256 24.728C51.864 25.672 50.224 26.144 48.336 26.144C46.736 26.144 45.288 25.784 43.992 25.064C42.712 24.328 41.696 23.312 40.944 22.016C40.208 20.72 39.84 19.248 39.84 17.6ZM68.5339 26.168C66.9659 26.168 65.5259 25.8 64.2139 25.064C62.9019 24.328 61.8619 23.312 61.0939 22.016C60.3259 20.704 59.9419 19.224 59.9419 17.576C59.9419 15.944 60.3259 14.48 61.0939 13.184C61.8619 11.872 62.9019 10.848 64.2139 10.112C65.5259 9.376 66.9659 9.008 68.5339 9.008C70.1179 9.008 71.5579 9.376 72.8539 10.112C74.1659 10.848 75.1979 11.872 75.9499 13.184C76.7179 14.48 77.1019 15.944 77.1019 17.576C77.1019 19.224 76.7179 20.704 75.9499 22.016C75.1979 23.312 74.1659 24.328 72.8539 25.064C71.5419 25.8 70.1019 26.168 68.5339 26.168ZM68.5339 23.168C69.5419 23.168 70.4299 22.944 71.1979 22.496C71.9659 22.032 72.5659 21.376 72.9979 20.528C73.4299 19.68 73.6459 18.696 73.6459 17.576C73.6459 16.456 73.4299 15.48 72.9979 14.648C72.5659 13.8 71.9659 13.152 71.1979 12.704C70.4299 12.256 69.5419 12.032 68.5339 12.032C67.5259 12.032 66.6299 12.256 65.8459 12.704C65.0779 13.152 64.4779 13.8 64.0459 14.648C63.6139 15.48 63.3979 16.456 63.3979 17.576C63.3979 18.696 63.6139 19.68 64.0459 20.528C64.4779 21.376 65.0779 22.032 65.8459 22.496C66.6299 22.944 67.5259 23.168 68.5339 23.168ZM93.4976 14.432C93.4976 15.328 93.2816 16.168 92.8496 16.952C92.4336 17.736 91.7696 18.368 90.8576 18.848C89.9616 19.328 88.8256 19.568 87.4496 19.568H84.6416V26H81.2816V9.248H87.4496C88.7456 9.248 89.8496 9.472 90.7616 9.92C91.6736 10.368 92.3536 10.984 92.8016 11.768C93.2656 12.552 93.4976 13.44 93.4976 14.432ZM87.3056 16.856C88.2336 16.856 88.9216 16.648 89.3696 16.232C89.8176 15.8 90.0416 15.2 90.0416 14.432C90.0416 12.8 89.1296 11.984 87.3056 11.984H84.6416V16.856H87.3056ZM109.779 14.432C109.779 15.328 109.563 16.168 109.131 16.952C108.715 17.736 108.051 18.368 107.139 18.848C106.243 19.328 105.107 19.568 103.731 19.568H100.923V26H97.5632V9.248H103.731C105.027 9.248 106.131 9.472 107.043 9.92C107.955 10.368 108.635 10.984 109.083 11.768C109.547 12.552 109.779 13.44 109.779 14.432ZM103.587 16.856C104.515 16.856 105.203 16.648 105.651 16.232C106.099 15.8 106.323 15.2 106.323 14.432C106.323 12.8 105.411 11.984 103.587 11.984H100.923V16.856H103.587ZM117.205 11.96V16.16H122.845V18.824H117.205V23.264H123.565V26H113.845V9.224H123.565V11.96H117.205ZM136.938 26L133.242 19.472H131.658V26H128.298V9.248H134.586C135.882 9.248 136.986 9.48 137.898 9.944C138.81 10.392 139.49 11.008 139.938 11.792C140.402 12.56 140.634 13.424 140.634 14.384C140.634 15.488 140.314 16.488 139.674 17.384C139.034 18.264 138.082 18.872 136.818 19.208L140.826 26H136.938ZM131.658 16.952H134.466C135.378 16.952 136.058 16.736 136.506 16.304C136.954 15.856 137.178 15.24 137.178 14.456C137.178 13.688 136.954 13.096 136.506 12.68C136.058 12.248 135.378 12.032 134.466 12.032H131.658V16.952Z" fill="white"/>
<path d="M162.54 14V12.065H166.155V23H163.995V14H162.54ZM169.19 20.87V19.22L174.095 12.2H176.54V19.04H177.86V20.87H176.54V23H174.44V20.87H169.19ZM174.575 14.45L171.5 19.04H174.575V14.45ZM187.207 13.655L183.217 23H181.087L185.107 13.895H179.977V12.095H187.207V13.655ZM190.684 23.105C190.304 23.105 189.989 22.99 189.739 22.76C189.499 22.52 189.379 22.225 189.379 21.875C189.379 21.525 189.499 21.235 189.739 21.005C189.989 20.765 190.304 20.645 190.684 20.645C191.054 20.645 191.359 20.765 191.599 21.005C191.839 21.235 191.959 21.525 191.959 21.875C191.959 22.225 191.839 22.52 191.599 22.76C191.359 22.99 191.054 23.105 190.684 23.105ZM200.131 14.795C200.031 14.375 199.856 14.06 199.606 13.85C199.366 13.64 199.016 13.535 198.556 13.535C197.866 13.535 197.356 13.815 197.026 14.375C196.706 14.925 196.541 15.825 196.531 17.075C196.771 16.675 197.121 16.365 197.581 16.145C198.041 15.915 198.541 15.8 199.081 15.8C199.731 15.8 200.306 15.94 200.806 16.22C201.306 16.5 201.696 16.91 201.976 17.45C202.256 17.98 202.396 18.62 202.396 19.37C202.396 20.08 202.251 20.715 201.961 21.275C201.681 21.825 201.266 22.255 200.716 22.565C200.166 22.875 199.511 23.03 198.751 23.03C197.711 23.03 196.891 22.8 196.291 22.34C195.701 21.88 195.286 21.24 195.046 20.42C194.816 19.59 194.701 18.57 194.701 17.36C194.701 15.53 195.016 14.15 195.646 13.22C196.276 12.28 197.271 11.81 198.631 11.81C199.681 11.81 200.496 12.095 201.076 12.665C201.656 13.235 201.991 13.945 202.081 14.795H200.131ZM198.601 17.525C198.071 17.525 197.626 17.68 197.266 17.99C196.906 18.3 196.726 18.75 196.726 19.34C196.726 19.93 196.891 20.395 197.221 20.735C197.561 21.075 198.036 21.245 198.646 21.245C199.186 21.245 199.611 21.08 199.921 20.75C200.241 20.42 200.401 19.975 200.401 19.415C200.401 18.835 200.246 18.375 199.936 18.035C199.636 17.695 199.191 17.525 198.601 17.525ZM205.136 14.945C205.186 13.945 205.536 13.175 206.186 12.635C206.846 12.085 207.711 11.81 208.781 11.81C209.511 11.81 210.136 11.94 210.656 12.2C211.176 12.45 211.566 12.795 211.826 13.235C212.096 13.665 212.231 14.155 212.231 14.705C212.231 15.335 212.066 15.87 211.736 16.31C211.416 16.74 211.031 17.03 210.581 17.18V17.24C211.161 17.42 211.611 17.74 211.931 18.2C212.261 18.66 212.426 19.25 212.426 19.97C212.426 20.57 212.286 21.105 212.006 21.575C211.736 22.045 211.331 22.415 210.791 22.685C210.261 22.945 209.621 23.075 208.871 23.075C207.741 23.075 206.821 22.79 206.111 22.22C205.401 21.65 205.026 20.81 204.986 19.7H207.026C207.046 20.19 207.211 20.585 207.521 20.885C207.841 21.175 208.276 21.32 208.826 21.32C209.336 21.32 209.726 21.18 209.996 20.9C210.276 20.61 210.416 20.24 210.416 19.79C210.416 19.19 210.226 18.76 209.846 18.5C209.466 18.24 208.876 18.11 208.076 18.11H207.641V16.385H208.076C209.496 16.385 210.206 15.91 210.206 14.96C210.206 14.53 210.076 14.195 209.816 13.955C209.566 13.715 209.201 13.595 208.721 13.595C208.251 13.595 207.886 13.725 207.626 13.985C207.376 14.235 207.231 14.555 207.191 14.945H205.136Z" fill="white"/>
</svg>
