<svg width="175" height="36" viewBox="0 0 175 36" fill="none" xmlns="http://www.w3.org/2000/svg">
<path d="M49.44 26.168C48.272 26.168 47.216 25.968 46.272 25.568C45.344 25.168 44.608 24.592 44.064 23.84C43.52 23.088 43.24 22.2 43.224 21.176H46.824C46.872 21.864 47.112 22.408 47.544 22.808C47.992 23.208 48.6 23.408 49.368 23.408C50.152 23.408 50.768 23.224 51.216 22.856C51.664 22.472 51.888 21.976 51.888 21.368C51.888 20.872 51.736 20.464 51.432 20.144C51.128 19.824 50.744 19.576 50.28 19.4C49.832 19.208 49.208 19 48.408 18.776C47.32 18.456 46.432 18.144 45.744 17.84C45.072 17.52 44.488 17.048 43.992 16.424C43.512 15.784 43.272 14.936 43.272 13.88C43.272 12.888 43.52 12.024 44.016 11.288C44.512 10.552 45.208 9.992 46.104 9.608C47 9.208 48.024 9.008 49.176 9.008C50.904 9.008 52.304 9.432 53.376 10.28C54.464 11.112 55.064 12.28 55.176 13.784H51.48C51.448 13.208 51.2 12.736 50.736 12.368C50.288 11.984 49.688 11.792 48.936 11.792C48.28 11.792 47.752 11.96 47.352 12.296C46.968 12.632 46.776 13.12 46.776 13.76C46.776 14.208 46.92 14.584 47.208 14.888C47.512 15.176 47.88 15.416 48.312 15.608C48.76 15.784 49.384 15.992 50.184 16.232C51.272 16.552 52.16 16.872 52.848 17.192C53.536 17.512 54.128 17.992 54.624 18.632C55.12 19.272 55.368 20.112 55.368 21.152C55.368 22.048 55.136 22.88 54.672 23.648C54.208 24.416 53.528 25.032 52.632 25.496C51.736 25.944 50.672 26.168 49.44 26.168ZM71.361 9.248V11.96H66.897V26H63.537V11.96H59.073V9.248H71.361ZM78.8526 11.96V16.16H84.4926V18.824H78.8526V23.264H85.2126V26H75.4926V9.224H85.2126V11.96H78.8526ZM93.306 11.96V16.16H98.946V18.824H93.306V23.264H99.666V26H89.946V9.224H99.666V11.96H93.306ZM107.759 23.336H113.279V26H104.399V9.248H107.759V23.336Z" fill="white"/>
<path d="M124.54 14V12.065H128.155V23H125.995V14H124.54ZM131.31 14.945C131.36 13.945 131.71 13.175 132.36 12.635C133.02 12.085 133.885 11.81 134.955 11.81C135.685 11.81 136.31 11.94 136.83 12.2C137.35 12.45 137.74 12.795 138 13.235C138.27 13.665 138.405 14.155 138.405 14.705C138.405 15.335 138.24 15.87 137.91 16.31C137.59 16.74 137.205 17.03 136.755 17.18V17.24C137.335 17.42 137.785 17.74 138.105 18.2C138.435 18.66 138.6 19.25 138.6 19.97C138.6 20.57 138.46 21.105 138.18 21.575C137.91 22.045 137.505 22.415 136.965 22.685C136.435 22.945 135.795 23.075 135.045 23.075C133.915 23.075 132.995 22.79 132.285 22.22C131.575 21.65 131.2 20.81 131.16 19.7H133.2C133.22 20.19 133.385 20.585 133.695 20.885C134.015 21.175 134.45 21.32 135 21.32C135.51 21.32 135.9 21.18 136.17 20.9C136.45 20.61 136.59 20.24 136.59 19.79C136.59 19.19 136.4 18.76 136.02 18.5C135.64 18.24 135.05 18.11 134.25 18.11H133.815V16.385H134.25C135.67 16.385 136.38 15.91 136.38 14.96C136.38 14.53 136.25 14.195 135.99 13.955C135.74 13.715 135.375 13.595 134.895 13.595C134.425 13.595 134.06 13.725 133.8 13.985C133.55 14.235 133.405 14.555 133.365 14.945H131.31ZM148.269 13.655L144.279 23H142.149L146.169 13.895H141.039V12.095H148.269V13.655ZM151.747 23.105C151.367 23.105 151.052 22.99 150.802 22.76C150.562 22.52 150.442 22.225 150.442 21.875C150.442 21.525 150.562 21.235 150.802 21.005C151.052 20.765 151.367 20.645 151.747 20.645C152.117 20.645 152.422 20.765 152.662 21.005C152.902 21.235 153.022 21.525 153.022 21.875C153.022 22.225 152.902 22.52 152.662 22.76C152.422 22.99 152.117 23.105 151.747 23.105ZM161.193 14.795C161.093 14.375 160.918 14.06 160.668 13.85C160.428 13.64 160.078 13.535 159.618 13.535C158.928 13.535 158.418 13.815 158.088 14.375C157.768 14.925 157.603 15.825 157.593 17.075C157.833 16.675 158.183 16.365 158.643 16.145C159.103 15.915 159.603 15.8 160.143 15.8C160.793 15.8 161.368 15.94 161.868 16.22C162.368 16.5 162.758 16.91 163.038 17.45C163.318 17.98 163.458 18.62 163.458 19.37C163.458 20.08 163.313 20.715 163.023 21.275C162.743 21.825 162.328 22.255 161.778 22.565C161.228 22.875 160.573 23.03 159.813 23.03C158.773 23.03 157.953 22.8 157.353 22.34C156.763 21.88 156.348 21.24 156.108 20.42C155.878 19.59 155.763 18.57 155.763 17.36C155.763 15.53 156.078 14.15 156.708 13.22C157.338 12.28 158.333 11.81 159.693 11.81C160.743 11.81 161.558 12.095 162.138 12.665C162.718 13.235 163.053 13.945 163.143 14.795H161.193ZM159.663 17.525C159.133 17.525 158.688 17.68 158.328 17.99C157.968 18.3 157.788 18.75 157.788 19.34C157.788 19.93 157.953 20.395 158.283 20.735C158.623 21.075 159.098 21.245 159.708 21.245C160.248 21.245 160.673 21.08 160.983 20.75C161.303 20.42 161.463 19.975 161.463 19.415C161.463 18.835 161.308 18.375 160.998 18.035C160.698 17.695 160.253 17.525 159.663 17.525ZM166.198 14.945C166.248 13.945 166.598 13.175 167.248 12.635C167.908 12.085 168.773 11.81 169.843 11.81C170.573 11.81 171.198 11.94 171.718 12.2C172.238 12.45 172.628 12.795 172.888 13.235C173.158 13.665 173.293 14.155 173.293 14.705C173.293 15.335 173.128 15.87 172.798 16.31C172.478 16.74 172.093 17.03 171.643 17.18V17.24C172.223 17.42 172.673 17.74 172.993 18.2C173.323 18.66 173.488 19.25 173.488 19.97C173.488 20.57 173.348 21.105 173.068 21.575C172.798 22.045 172.393 22.415 171.853 22.685C171.323 22.945 170.683 23.075 169.933 23.075C168.803 23.075 167.883 22.79 167.173 22.22C166.463 21.65 166.088 20.81 166.048 19.7H168.088C168.108 20.19 168.273 20.585 168.583 20.885C168.903 21.175 169.338 21.32 169.888 21.32C170.398 21.32 170.788 21.18 171.058 20.9C171.338 20.61 171.478 20.24 171.478 19.79C171.478 19.19 171.288 18.76 170.908 18.5C170.528 18.24 169.938 18.11 169.138 18.11H168.703V16.385H169.138C170.558 16.385 171.268 15.91 171.268 14.96C171.268 14.53 171.138 14.195 170.878 13.955C170.628 13.715 170.263 13.595 169.783 13.595C169.313 13.595 168.948 13.725 168.688 13.985C168.438 14.235 168.293 14.555 168.253 14.945H166.198Z" fill="white"/>
<path d="M2.04999 26.9999L8.49999 17.9999H13.55L21 9.2999V26.9999H2.04999ZM3.79999 21.1749L2.19999 20.0249L6.49999 13.9999H11.55L16.25 8.5249L17.75 9.8249L12.45 15.9999H7.49999L3.79999 21.1749Z" fill="#4ECB71"/>
</svg>
